# xmcd
#
# Track frame offsets:
#	150
#	21813
#	39401
#	50480
#	76372
#	102956
#	120124
#	145600
#	171088
#	195444
#	218707
#	241974
#	252628
#
# Disc length: 3681 seconds
#
# Revision: 1
# Processed by: cddbd v1.5.2PL0 Copyright (c) Steve Scherf et al.
# Submitted via: audiograbber 1.83.01
#
DISCID=a40e5f0d
DTITLE=Various Artist - Club Nights
DYEAR=2005
DGENRE=Dance
TTITLE0=Hi_Tack - Say Say Say (Waiting 4 U) (Tocadisco Mix)
TTITLE1=Uniting Nations - Ai No Corrida (Uniting Nations Extended Mix)
TTITLE2=Bob Sinclar Feat. Gary Nesta Pine - Love Generation
TTITLE3=Filterfunk - S.O.S. (Message In A Bottle) (Sander Van Doom Remix)
TTITLE4=Freemasons Feat. Amanda Wilson - Watchin' (Motivo Hi-Lectro Remix)
TTITLE5=Andry Nalin and Gregor Wagner Presents Bush II Bush - Piano Track
TTITLE6=Uniting Nations - Out Of Touch (I Love You So Much) (Extended Mix)
TTITLE7=Dajae - Brighter Days (Haji and Emanuel Vocal Mix)
TTITLE8=Delacy - Hideaway 2005 (Delacy vs. The Young Punx Mix)
TTITLE9=Aurora - Summer Son (Killaz Atomic Baby Mix)
TTITLE10=Soulshaker Feat. Lorraine Brown - Hypnotic Erotic Games (Uniting Natio
TTITLE10=ns Extended Mix)
TTITLE11=Denis The Menace and Jerry Vs. Francesco Diaz - Time 2 Turn Around
TTITLE12=Studio B - C'Mon and Get It On (Freemasons Remix)
EXTD=
EXTT0=
EXTT1=
EXTT2=
EXTT3=
EXTT4=
EXTT5=
EXTT6=
EXTT7=
EXTT8=
EXTT9=
EXTT10=
EXTT11=
EXTT12=
PLAYORDER=
